<?xml version="1.0" encoding="UTF-8"?>
<!DOCTYPE svg PUBLIC "-//W3C//DTD SVG 1.1//EN" "http://www.w3.org/Graphics/SVG/1.1/DTD/svg11.dtd">
<svg xmlns="http://www.w3.org/2000/svg" xmlns:xlink="http://www.w3.org/1999/xlink" version="1.1" width="406px" height="245px" viewBox="-0.5 -0.5 406 245"><defs/><g><path d="M 262 92 L 262 172 C 240.78 172 220.43 163.57 205.43 148.57 C 190.43 133.57 182 113.22 182 92 C 182 47.82 217.82 12 262 12 Z" fill="#e6e6e6" stroke="#004c99" stroke-width="2" stroke-miterlimit="10" transform="rotate(-180,262,92)" pointer-events="all"/><ellipse cx="262" cy="92" rx="80" ry="80" fill="transparent" stroke="#004c99" stroke-width="5" pointer-events="all"/><path d="M 92 192 L 242 192 L 252 212 L 242 232 L 92 232 L 102 212 Z" fill="#e6e6e6" stroke="#004c99" stroke-width="5" stroke-miterlimit="10" pointer-events="all"/><path d="M 52 132 Q 52 212 126.37 212" fill="none" stroke="#004c99" stroke-width="6" stroke-miterlimit="10" pointer-events="stroke"/><path d="M 135.37 212 L 123.37 218 L 126.37 212 L 123.37 206 Z" fill="#004c99" stroke="#004c99" stroke-width="6" stroke-miterlimit="10" pointer-events="all"/><ellipse cx="52" cy="92" rx="40" ry="40" fill="#e6e6e6" stroke="#004c99" stroke-width="5" pointer-events="all"/><path d="M 182 92 L 77.71 92" fill="none" stroke="#004c99" stroke-width="6" stroke-miterlimit="10" pointer-events="stroke"/><path d="M 68.71 92 L 80.71 86 L 77.71 92 L 80.71 98 Z" fill="#004c99" stroke="#004c99" stroke-width="6" stroke-miterlimit="10" pointer-events="all"/><path d="M 252 212 Q 392 212 392 152 Q 392 92 307.79 92" fill="none" stroke="#004c99" stroke-width="6" stroke-miterlimit="10" pointer-events="stroke"/><path d="M 298.79 92 L 310.79 86 L 307.79 92 L 310.79 98 Z" fill="#004c99" stroke="#004c99" stroke-width="6" stroke-miterlimit="10" pointer-events="all"/></g></svg>